<?xml version="1.0" encoding="UTF-8" standalone="no"?>
<!-- Created with Inkscape (http://www.inkscape.org/) -->

<svg
   xmlns:dc="http://purl.org/dc/elements/1.1/"
   xmlns:cc="http://creativecommons.org/ns#"
   xmlns:rdf="http://www.w3.org/1999/02/22-rdf-syntax-ns#"
   xmlns:svg="http://www.w3.org/2000/svg"
   xmlns="http://www.w3.org/2000/svg"
   xmlns:sodipodi="http://sodipodi.sourceforge.net/DTD/sodipodi-0.dtd"
   xmlns:inkscape="http://www.inkscape.org/namespaces/inkscape"
   width="512"
   height="512"
   viewBox="0 0 135.46666 135.46667"
   version="1.1"
   id="svg8"
   sodipodi:docname="ikona.svg"
   inkscape:version="0.92.3 (2405546, 2018-03-11)">
  <defs
     id="defs2" />
  <sodipodi:namedview
     id="base"
     pagecolor="#ffffff"
     bordercolor="#666666"
     borderopacity="1.0"
     inkscape:pageopacity="0.0"
     inkscape:pageshadow="2"
     inkscape:zoom="0.70710678"
     inkscape:cx="-313.32367"
     inkscape:cy="106.38443"
     inkscape:document-units="mm"
     inkscape:current-layer="layer1"
     showgrid="true"
     units="px"
     inkscape:pagecheckerboard="false"
     inkscape:window-width="1920"
     inkscape:window-height="1137"
     inkscape:window-x="1912"
     inkscape:window-y="-8"
     inkscape:window-maximized="1">
    <inkscape:grid
       type="xygrid"
       id="grid10" />
  </sodipodi:namedview>
  <metadata
     id="metadata5">
    <rdf:RDF>
      <cc:Work
         rdf:about="">
        <dc:format>image/svg+xml</dc:format>
        <dc:type
           rdf:resource="http://purl.org/dc/dcmitype/StillImage" />
        <dc:title></dc:title>
      </cc:Work>
    </rdf:RDF>
  </metadata>
  <g
     inkscape:label="Vrstva 1"
     inkscape:groupmode="layer"
     id="layer1"
     transform="translate(0,-161.53332)">
    <path
       style="fill:#009688;fill-opacity:1;stroke:#000000;stroke-width:0.26458332;stroke-miterlimit:4;stroke-dasharray:none;stroke-opacity:1;paint-order:normal"
       d="M 24.341667,161.53332 C 10.856388,161.53332 1.1840625e-6,172.3897 1.1840625e-6,185.87498 v 86.78334 C 1.1840625e-6,286.14358 10.856388,296.99998 24.341667,296.99998 H 111.125 c 13.48528,0 24.34167,-10.8564 24.34167,-24.34166 v -86.78334 c 0,-13.48528 -10.85639,-24.34166 -24.34167,-24.34166 z"
       id="path41" />
    <path
       style="fill:#009688;fill-opacity:1;stroke:#000000;stroke-width:0.26458332;stroke-miterlimit:4;stroke-dasharray:none;stroke-opacity:1;paint-order:normal"
       d="M 49.100362,178.40361 A 15.599775,15.599775 0 0 1 64.700443,194.00317 15.599775,15.599775 0 0 1 49.100362,209.60325 15.599775,15.599775 0 0 1 33.500798,194.00317 15.599775,15.599775 0 0 1 49.100362,178.40361 Z"
       id="path39" />
    <path
       style="fill:#009688;fill-opacity:1;stroke:#000000;stroke-width:0.26458332;stroke-miterlimit:4;stroke-dasharray:none;stroke-opacity:1;paint-order:normal"
       d="M 84.658916,178.40361 A 15.599775,15.599775 0 0 1 100.25848,194.00317 15.599775,15.599775 0 0 1 84.658916,209.60325 15.599775,15.599775 0 0 1 69.058835,194.00317 15.599775,15.599775 0 0 1 84.658916,178.40361 Z"
       id="path37" />
    <path
       style="fill:#009688;fill-opacity:1;stroke:#000000;stroke-width:0.26458332;stroke-miterlimit:4;stroke-dasharray:none;stroke-opacity:1;paint-order:normal"
       d="M 49.100362,213.96216 A 15.599775,15.599775 0 0 1 64.700443,229.56172 15.599775,15.599775 0 0 1 49.100362,245.16129 15.599775,15.599775 0 0 1 33.500798,229.56172 15.599775,15.599775 0 0 1 49.100362,213.96216 Z"
       id="path35" />
    <path
       style="fill:#009688;fill-opacity:1;stroke:#000000;stroke-width:0.26458332;stroke-miterlimit:4;stroke-dasharray:none;stroke-opacity:1;paint-order:normal"
       d="M 84.658916,213.96216 A 15.599775,15.599775 0 0 1 100.25848,229.56172 15.599775,15.599775 0 0 1 84.658916,245.16129 15.599775,15.599775 0 0 1 69.058835,229.56172 15.599775,15.599775 0 0 1 84.658916,213.96216 Z"
       id="path33" />
    <path
       style="fill:#009688;fill-opacity:1;stroke:#000000;stroke-width:0.26458332;stroke-miterlimit:4;stroke-dasharray:none;stroke-opacity:1;paint-order:normal"
       d="M 49.100362,249.52019 A 15.599776,15.599776 0 0 1 64.700443,265.12027 15.599776,15.599776 0 0 1 49.100362,280.71984 15.599776,15.599776 0 0 1 33.500798,265.12027 15.599776,15.599776 0 0 1 49.100362,249.52019 Z"
       id="path31" />
    <path
       style="fill:#009688;fill-opacity:1;stroke:#000000;stroke-width:0.26458332;stroke-miterlimit:4;stroke-dasharray:none;stroke-opacity:1;paint-order:normal"
       d="M 84.658916,249.52019 A 15.599776,15.599776 0 0 1 100.25848,265.12027 15.599776,15.599776 0 0 1 84.658916,280.71984 15.599776,15.599776 0 0 1 69.058835,265.12027 15.599776,15.599776 0 0 1 84.658916,249.52019 Z"
       id="rect3715" />
    <path
       style="fill:#ffffff;stroke-width:0.70710677"
       d="m 175.23169,180.03742 c -6.23394,-1.12415 -15.65132,-4.94084 -21.32754,-8.64366 -17.63124,-11.50155 -27.13212,-30.21503 -26.09719,-51.4025 0.47722,-9.76971 1.67794,-14.54903 5.78394,-23.022307 5.57017,-11.494759 14.50009,-20.432085 26.17317,-26.194847 8.58683,-4.239147 13.25154,-5.377872 23.68807,-5.782601 10.91827,-0.423412 18.40231,1.128975 27.93072,5.793563 14.80284,7.246656 26.08318,20.974389 30.522,37.144042 1.77575,6.4687 1.77338,23.24464 -0.004,29.69848 -5.23908,19.02137 -19.52336,33.99507 -38.42955,40.28433 -6.05696,2.01489 -8.05932,2.3377 -15.77631,2.54342 -4.86136,0.1296 -10.46975,-0.0585 -12.46309,-0.41792 z"
       id="path43"
       inkscape:connector-curvature="0"
       transform="matrix(0.26458333,0,0,0.26458333,0,161.53332)" />
    <path
       style="fill:#ffffff;stroke-width:0.70710677"
       d="m 309.55385,180.02988 c -2.00881,-0.35976 -6.26638,-1.6081 -9.46128,-2.77409 -16.68697,-6.09 -29.45695,-19.34664 -35.44878,-36.79977 -2.1997,-6.40731 -2.30664,-7.20731 -2.31591,-17.32412 -0.0114,-12.44085 0.86409,-16.47685 5.67531,-26.162947 7.84207,-15.787917 21.6143,-26.714452 38.83909,-30.813956 8.41939,-2.003819 22.08832,-1.658387 29.69848,0.75052 15.66557,4.958753 28.3985,15.769491 35.40766,30.062427 4.22416,8.613816 5.35839,13.276796 5.76218,23.689086 0.28708,7.40286 0.0967,9.87274 -1.17188,15.2028 -4.82447,20.27055 -19.56489,36.05396 -39.64441,42.44957 -4.91512,1.56554 -7.62112,1.95634 -14.84924,2.14449 -4.86136,0.12655 -10.48241,-0.0643 -12.49122,-0.42401 z"
       id="path45"
       inkscape:connector-curvature="0"
       transform="matrix(0.26458333,0,0,0.26458333,0,161.53332)" />
    <path
       style="fill:#ffffff;stroke-width:0.70710677"
       d="m 307.90294,314.06295 c -20.5702,-4.58247 -36.57894,-19.09553 -43.29599,-39.25089 -2.1075,-6.32384 -2.24268,-7.35339 -2.27534,-17.32987 -0.0395,-12.05914 0.75961,-15.8808 5.34843,-25.57917 6.98117,-14.75456 21.3088,-26.67107 37.39447,-31.10157 6.45384,-1.77758 23.22978,-1.77996 29.69848,-0.004 16.13087,4.42817 29.88341,15.7224 37.16543,30.522 4.23141,8.5997 5.36792,13.26375 5.77218,23.68808 0.28672,7.3935 0.0958,9.87947 -1.16768,15.20279 -2.96707,12.50119 -10.40596,24.43897 -20.02921,32.14249 -5.1496,4.12231 -15.32162,9.35834 -21.38716,11.009 -5.97247,1.62534 -21.30303,2.02029 -27.22361,0.70135 z"
       id="path47"
       inkscape:connector-curvature="0"
       transform="matrix(0.26458333,0,0,0.26458333,0,161.53332)" />
    <path
       style="fill:#ffffff;stroke-width:0.70710677"
       d="m 173.19909,313.99351 c -22.31232,-4.91549 -40.10052,-23.06831 -44.59571,-45.50983 -1.42346,-7.10641 -1.06522,-19.83873 0.74726,-26.55784 1.68048,-6.22982 6.90767,-16.31623 11.16719,-21.54829 7.27987,-8.942 18.90578,-16.47812 30.20639,-19.58031 6.44513,-1.76928 23.23218,-1.77266 29.69849,-0.006 6.58032,1.79784 16.57864,6.94802 21.90184,11.28174 8.84222,7.19864 16.54649,19.08033 19.58629,30.20639 1.76936,6.47608 1.76359,23.25845 -0.0102,29.69849 -5.40174,19.61193 -21.74352,36.05272 -41.12439,41.37353 -6.12259,1.6809 -21.26182,2.03339 -27.57717,0.6421 z"
       id="path49"
       inkscape:connector-curvature="0"
       transform="matrix(0.26458333,0,0,0.26458333,0,161.53332)" />
    <path
       style="fill:#ffffff;stroke-width:0.70710677"
       d="m 173.19909,448.33194 c -22.55867,-5.02382 -40.06631,-22.88568 -44.59571,-45.49797 -1.42696,-7.12387 -1.06352,-19.86679 0.75744,-26.55784 4.26246,-15.66213 16.27252,-30.01576 31.0554,-37.11533 9.11674,-4.37836 13.3929,-5.27499 25.15724,-5.27499 11.76434,0 16.0405,0.89663 25.15724,5.27499 14.91286,7.162 26.73753,21.37623 31.16995,37.46888 1.77378,6.44004 1.77955,23.22241 0.0102,29.69849 -1.74607,6.39086 -6.90569,16.48442 -11.11341,21.74071 -6.99509,8.73828 -19.13232,16.67974 -30.02117,19.64301 -6.16616,1.67805 -21.29857,2.01829 -27.57716,0.62005 z"
       id="path51"
       inkscape:connector-curvature="0"
       transform="matrix(0.26458333,0,0,0.26458333,0,161.53332)" />
    <path
       style="fill:#ffffff;stroke-width:0.70710677"
       d="m 307.90294,448.36278 c -17.51744,-3.75974 -32.66285,-15.68024 -40.2229,-31.65824 -4.58882,-9.69836 -5.38791,-13.52002 -5.34843,-25.57917 0.0327,-9.97647 0.16784,-11.00602 2.27534,-17.32987 6.07521,-18.22944 18.66277,-30.90041 37.14076,-37.38688 7.04307,-2.47238 7.46991,-2.53307 17.82249,-2.53417 12.44006,-0.001 16.48753,0.878 26.16295,5.68391 11.85084,5.88648 20.37331,14.38503 26.14989,26.07649 4.68982,9.49192 6.25304,16.99356 5.82756,27.9654 -0.40426,10.42433 -1.54077,15.08838 -5.77218,23.68807 -9.79935,19.91568 -29.80341,32.26554 -52.01467,32.11219 -4.08354,-0.0282 -9.49291,-0.49517 -12.02081,-1.03773 z"
       id="path53"
       inkscape:connector-curvature="0"
       transform="matrix(0.26458333,0,0,0.26458333,0,161.53332)" />
    <path
       style="fill:#ffffff;stroke-width:0.35355338;stroke:none;stroke-opacity:1"
       d="m 311.35372,448.75842 c -12.38021,-1.53573 -25.5247,-8.70551 -34.70831,-18.93197 -5.88515,-6.55343 -11.3836,-17.00419 -13.27933,-25.23964 -0.72348,-3.14293 -1.07597,-18.86299 -0.51713,-23.06238 0.85785,-6.44638 5.42317,-17.32227 9.98436,-23.78555 6.84325,-9.69704 17.53688,-17.2779 30.70728,-21.76884 4.2439,-1.44711 4.64408,-1.51644 10.07627,-1.74572 7.83509,-0.3307 17.31283,0.13869 20.7489,1.0276 7.7005,1.99211 17.38391,7.19619 24.0498,12.92489 9.02601,7.75701 16.45605,20.96385 18.46916,32.82879 0.40362,2.37887 0.58433,5.46679 0.57553,9.83415 -0.0204,10.12928 -0.9026,15.29752 -3.78865,22.19583 -7.71224,18.43404 -22.56447,30.90512 -41.75436,35.06018 -2.72051,0.58905 -4.98554,0.77265 -10.69898,0.86725 -3.98632,0.066 -8.42536,-0.0261 -9.86454,-0.20459 z"
       id="path55"
       inkscape:connector-curvature="0"
       transform="matrix(0.26458333,0,0,0.26458333,0,161.53332)" />
  </g>
</svg>
