<svg version="1" xmlns="http://www.w3.org/2000/svg" width="933.333" height="933.333" viewBox="0 0 700.000000 700.000000"><path d="M100.8 2C49.6 12.8 11.3 51.8 1.6 102.9.2 110.3 0 137.1 0 350c0 212.9.2 239.7 1.6 247.1C11.4 649 51 688.6 102.9 698.4c7.4 1.4 34.2 1.6 247.1 1.6 212.9 0 239.7-.2 247.1-1.6 51.9-9.8 91.5-49.4 101.3-101.3 1.4-7.4 1.6-34.2 1.6-247.1 0-212.9-.2-239.7-1.6-247.1C688.6 51 649 11.4 597.1 1.6 589.7.2 563 0 349.1.1 120.5.1 109.1.2 100.8 2zm171.6 88.6c23 5.6 41.9 20.7 52.6 42.2 6.1 12.2 7.4 18.4 7.5 35.2 0 16.5-1.6 23.7-8.3 36.5-11.2 21.4-33.5 37.7-56.3 41.4-9 1.5-24.3 1.3-31.4-.3-23.3-5.6-43.3-21.3-53.4-42.1-6.7-13.7-8.5-21.2-8.4-36 0-13.2 1-18.3 5.4-29.3 11.1-27.8 36.3-46.6 66.4-49.5 6.3-.6 19.5.3 25.9 1.9zM447.3 89c26.5 3.1 49.9 19.9 61.7 44.4 4.9 10.3 6.9 18.3 7.7 30.4 2.1 35.3-19.9 67.3-54.5 79.5-8.3 3-9.4 3.1-24.7 3.1-15.4.1-16.3-.1-24.7-3-12.5-4.5-22.1-10.5-31.4-19.8-16.9-16.9-24.7-37.9-23-61.6.8-11.2 2.8-18.8 7.6-28.6 13.3-27.2 39-43.8 70-45.3 1.4 0 6.5.4 11.3.9zM273.9 274.6c9 2.2 25.1 10.8 32 17.1 11.5 10.4 21 25.5 24.8 39.3 2.5 9 2.5 31.9 0 41-3.6 13.5-13 28.7-23.7 38.3-16.8 15.1-36.6 21.9-59.5 20.4-30.8-2-58.4-23.3-68.6-52.9-9-26.2-4.7-53 12.2-75.2 11.5-15.2 32.2-27.3 50.7-29.6 8.4-1.1 24.7-.3 32.1 1.6zm184 0c7.7 2 22.5 9.4 29.3 14.8 12.1 9.6 23.5 27.3 27.5 42.6 2.6 10.2 2.4 30.4-.5 40.3-6.8 23.5-21.5 40.8-43.5 51.3-11.5 5.4-18.4 6.8-33.7 6.8-11.5.1-14.6-.3-21-2.3-16.8-5.2-30.1-14-40.3-26.6-6.3-7.9-10.2-15-13.9-26-2.9-8.3-3.1-10.1-3.2-23-.1-16.1.9-21.2 6.5-33.3 9.9-21.5 26.5-36.4 48.7-43.6 11.1-3.7 31.7-4.1 44.1-1zM274.8 458.4c20.9 5.8 40.4 22.1 50.5 42.1 9.9 19.7 10.2 47.5.8 67.1-8.8 18.5-18.7 28.9-36.3 38.3-11.2 6.1-20.6 8.2-36.3 8.2-8.4 0-15.1-.6-18.8-1.6-29.1-7.6-50.2-28.8-58.3-58.5-2.5-9.3-2.3-28.8.4-39.1 7.7-28.7 33.3-52.8 61.4-57.9 7.3-1.3 30.2-.4 36.6 1.4zm186.7 1c12.6 4.2 21.9 10 31.6 19.6 16.9 16.7 24.8 37.1 23.5 60.5-.7 12.3-2.5 19.6-7.6 30.1-10.2 21.1-28.9 36.6-51.5 42.5-10.6 2.8-28.9 3-39 .5-21.7-5.5-41.2-20.8-51.4-40.6-6.9-13.3-8.6-20.4-8.6-37 .1-13.2.3-15.2 2.9-23 4.8-14.4 9.8-22.7 19.8-32.8 10.2-10.3 25.1-18.5 39.3-21.8 4-.9 10.4-1.3 19.5-1 11.4.3 14.8.8 21.5 3z"/></svg>